<svg version="1.1" xmlns="http://www.w3.org/2000/svg" xmlns:xlink="http://www.w3.org/1999/xlink" width="32px" height="32px" viewBox="0,0,256,256"><g fill="#7d7f80" fill-rule="nonzero" stroke="none" stroke-width="1" stroke-linecap="butt" stroke-linejoin="miter" stroke-miterlimit="10" stroke-dasharray="" stroke-dashoffset="0" font-family="none" font-weight="none" font-size="none" text-anchor="none" style="mix-blend-mode: normal"><g transform="translate(0,12) scale(8,8)"><path d="M32,22v-19h-25v2h-7v21h12v-4h6v3h-4v1h11v-1h-4v-3zM7,18h-4v-2h4zM7,13h-6v-3h6zM7,6v3h-6v-3zM11,25h-10v-11h6v1h-5v4h5v3h4zM8,21v-17h23v17zM20,25h-1v-3h1z"></path><circle cx="3" cy="22" r="1"></circle><path d="M30,5h-21v15h21zM29,19h-19v-13h19z"></path></g></g></svg>