<svg version="1.1" xmlns="http://www.w3.org/2000/svg" xmlns:xlink="http://www.w3.org/1999/xlink" width="65px" height="62px" viewBox="0,0,256,244.175"><g fill="none" fill-rule="nonzero" stroke="#7d7f80" stroke-width="2" stroke-linecap="butt" stroke-linejoin="round" stroke-miterlimit="10" stroke-dasharray="" stroke-dashoffset="0" font-family="none" font-weight="none" font-size="none" text-anchor="none" style="mix-blend-mode: normal"><g transform="translate(-1.57538,0.04948) scale(3.93846,3.93846)"><g id="Page-1"><g transform="translate(2,1)" id="Phone-old"><path d="M44.3,28.1c0.2,-0.4 0.3,-0.8 0.3,-1.2c0,-1.7 -1.4,-2.3 -4.6,-3.2v-2.7c0,-1.1 -0.9,-1 -2,-1c-1.1,0 -2,-0.1 -2,1v2.9h-10v-2.9c0,-1.1 -0.9,-1 -2,-1c-1.1,0 -2,-0.1 -2,1v2.7c-3.2,1 -5,1.5 -5,3.2c0,0.4 0.1,0.8 0.3,1.2c-10.4,4.3 -17.4,13.7 -17.4,25.9c0,7.3 61.8,8.6 61.8,0c0,-12.2 -7,-21.6 -17.4,-25.9z" id="Shape_1_"></path><path d="M52.9,1.1c0,0 -8.5,-1.1 -21.9,-1.1c0,0 0,0 -0.1,0c-13.4,0 -22.1,1.1 -22.1,1.1c-5.4,1.7 -9,6.7 -9,14.4c0,4.3 3.2,5.5 11.2,5.5v0h0.1c7.1,0 9.3,-3.3 8.6,-6.3c-0.1,-0.6 -1.2,-2.3 -1.5,-2.6c0,0 0.6,-3.1 12.8,-3.1c12.1,0 12.6,3.1 12.6,3.1c-0.3,0.3 -1.4,2 -1.5,2.6c-0.8,3 1.4,6.3 8.6,6.3h0.1v0c8,0 11.2,-1.2 11.2,-5.5c-0.2,-6.3 -3.7,-12.7 -9.1,-14.4z" id="Shape"></path><circle cx="31" cy="43" r="13" id="Oval"></circle><circle cx="31" cy="43" r="3" id="Oval_1_"></circle><circle cx="31" cy="35" r="1" id="Oval_2_"></circle><circle cx="31" cy="51" r="1" id="Oval_3_"></circle><circle cx="37" cy="37" r="1" id="Oval_4_"></circle><circle cx="25" cy="49" r="1" id="Oval_5_"></circle><circle cx="39" cy="43" r="1" id="Oval_6_"></circle><circle cx="23" cy="43" r="1" id="Oval_7_"></circle><circle cx="25" cy="37" r="1" id="Oval_8_"></circle></g></g></g></g></svg>