<svg version="1.1" xmlns="http://www.w3.org/2000/svg" xmlns:xlink="http://www.w3.org/1999/xlink" width="512px" height="512px" viewBox="0,0,256,256"><g fill="#8f8f8f" fill-rule="nonzero" stroke="none" stroke-width="1" stroke-linecap="butt" stroke-linejoin="miter" stroke-miterlimit="10" stroke-dasharray="" stroke-dashoffset="0" font-family="none" font-weight="none" font-size="none" text-anchor="none" style="mix-blend-mode: normal"><g transform="scale(0.5,0.5)"><path d="M256,0c-141.385,0 -256,114.615 -256,256c0,141.385 114.615,256 256,256c141.385,0 256,-114.615 256,-256c0,-141.385 -114.615,-256 -256,-256zM392.363,342.9h-32.485c-7.12723,0.00809 -13.86995,-3.23113 -18.318,-8.8c-9.742,-12.231 -28.934,-33.918 -49.085,-43.233c-2.37197,-1.11032 -5.14664,-0.9329 -7.35787,0.47049c-2.21123,1.40339 -3.55301,3.83853 -3.55813,6.45751v32.128c0.0008,3.44144 -1.36575,6.7422 -3.79894,9.17594c-2.43318,2.43375 -5.73363,3.80106 -9.17506,3.80106h-15.021c-19.534,0 -61.6,-11.891 -95.119,-60.719c-28.56,-41.6 -41.291,-73.84 -48.715,-99.98c-0.87498,-3.10584 -0.24391,-6.44224 1.70496,-9.01396c1.94887,-2.57172 4.9903,-4.08152 8.21704,-4.07904h32.862c6.73269,-0.00579 12.66987,4.4109 14.6,10.861c6.111,20.439 21.939,64.53 49.917,86.486c1.74065,1.37202 4.11195,1.62957 6.10657,0.66323c1.99462,-0.96634 3.26226,-2.98686 3.26443,-5.20323v-51.466c0,-10.171 -4.408,-20.347 -11.288,-28.3c-2.0247,-2.32949 -2.50259,-5.62675 -1.22257,-8.43522c1.28002,-2.80847 4.08216,-4.61078 7.16857,-4.61078h50.666c5.43299,0 9.83745,4.40401 9.838,9.837v69.325c0.00029,2.04585 1.14262,3.9204 2.96071,4.8585c1.8181,0.9381 4.00779,0.7828 5.67529,-0.4025c9.3,-6.62 17.265,-16.4 24.591,-27.393c9.22,-13.828 20.471,-36.686 26.115,-48.549c2.23002,-4.69062 6.96027,-7.67922 12.154,-7.679h35.84c3.04279,-0.0013 5.86973,1.57151 7.47295,4.15768c1.60322,2.58617 1.75455,5.81764 0.40005,8.54232c-9.044,18.14 -26.659,51.418 -43.235,70.942c-4.94051,5.84628 -4.21434,14.58893 1.623,19.54c10.805,9.232 27.673,26.3 45.859,54.729c2.04361,3.1697 2.19247,7.20257 0.3881,10.5143c-1.80437,3.31173 -5.27371,5.37325 -9.0451,5.3747z"></path></g></g></svg>